ModelForces
version=1
nRows=4
nColumns=67
inDegrees=no

This file contains the forces exerted on a model during a simulation.

A force is a generalized force, meaning that it can be either a force (N) or a torque (Nm).

Units are S.I. units (second, meters, Newtons, ...)
Angles are in degrees.

endheader
time	hamstrings_r	bifemsh_r	glut_max_r	iliopsoas_r	rect_fem_r	vasti_r	gastroc_r	soleus_r	tib_ant_r	hamstrings_l	bifemsh_l	glut_max_l	iliopsoas_l	rect_fem_l	vasti_l	gastroc_l	soleus_l	tib_ant_l	foot_r.ground.force.X	foot_r.ground.force.Y	foot_r.ground.force.Z	foot_r.ground.torque.X	foot_r.ground.torque.Y	foot_r.ground.torque.Z	foot_r.calcn_r.force.X	foot_r.calcn_r.force.Y	foot_r.calcn_r.force.Z	foot_r.calcn_r.torque.X	foot_r.calcn_r.torque.Y	foot_r.calcn_r.torque.Z	foot_r.toes_r.force.X	foot_r.toes_r.force.Y	foot_r.toes_r.force.Z	foot_r.toes_r.torque.X	foot_r.toes_r.torque.Y	foot_r.toes_r.torque.Z	foot_l.ground.force.X	foot_l.ground.force.Y	foot_l.ground.force.Z	foot_l.ground.torque.X	foot_l.ground.torque.Y	foot_l.ground.torque.Z	foot_l.calcn_l.force.X	foot_l.calcn_l.force.Y	foot_l.calcn_l.force.Z	foot_l.calcn_l.torque.X	foot_l.calcn_l.torque.Y	foot_l.calcn_l.torque.Z	foot_l.toes_l.force.X	foot_l.toes_l.force.Y	foot_l.toes_l.force.Z	foot_l.toes_l.torque.X	foot_l.toes_l.torque.Y	foot_l.toes_l.torque.Z	HipLimit_r	PotentialEnergy	HipLimit_l	PotentialEnergy	KneeLimit_r	PotentialEnergy	KneeLimit_l	PotentialEnergy	AnkleLimit_r	PotentialEnergy	AnkleLimit_l	PotentialEnergy
      0.25960227	   2045.32003300	    252.99935630	     39.53447443	    253.77005311	   1242.94250824	    128.56248009	    737.98922458	    797.15854172	      3.78670856	     63.96511370	    318.27526214	    374.50699656	    971.19173482	     78.21273547	   1012.88187407	   1182.75943798	    485.61277569	   1451.43637175	   -173.42694875	  -1170.78372401	      0.00000000	    107.67856553	    -15.89209688	    154.53930149	    138.79248246	    573.08235207	      0.00000000	      0.00000000	      0.00000000	     11.45283689	     34.63446629	    597.70137194	      0.00000000	      0.00000000	      0.00000000	     14.46258931	      0.00000000	      0.00000000	      0.00000000	      0.00000000	      0.00000000	      0.00000000	      0.00000000	      0.00000000	      0.00000000	      0.00000000	      0.00000000	      0.00000000	      0.00000000	      0.00000000	      0.00000000	      0.00000000	      0.00000000	      0.00000000	    131.13053443	      6.48050311	      0.00000000	      0.00000000	      0.00000000	      0.00000000	     75.63405223	      0.71430501	    -31.04881479	      0.34082503	      0.00000000	      0.00000000
      0.25965734	   2042.11609872	    252.82537186	     39.53996988	    253.68307274	   1243.26513697	    128.62468747	    737.73180341	    797.48313112	      3.79434301	     63.98089927	    318.27068122	    374.03649688	    970.97089120	     78.15061399	   1014.11539396	   1182.59209899	    485.53522613	   1451.75383494	   -172.52250438	  -1169.59357817	      0.00000000	    107.57058981	    -15.80904710	    154.15127056	    138.22643627	    571.12607986	      0.00000000	      0.00000000	      0.00000000	     11.41947683	     34.29606811	    598.46749830	      0.00000000	      0.00000000	      0.00000000	     14.48779279	      0.00000000	      0.00000000	      0.00000000	      0.00000000	      0.00000000	      0.00000000	      0.00000000	      0.00000000	      0.00000000	      0.00000000	      0.00000000	      0.00000000	      0.00000000	      0.00000000	      0.00000000	      0.00000000	      0.00000000	      0.00000000	    130.93823569	      6.46683450	      0.00000000	      0.00000000	      0.00000000	      0.00000000	     76.35252700	      0.72752729	    -31.18404591	      0.34340498	      0.00000000	      0.00000000
      0.25972185	   2038.36733056	    252.62201186	     39.54635558	    253.58159499	   1243.64337721	    128.69747485	    737.42914595	    797.86248700	      3.80337699	     63.99921564	    318.26457231	    375.83356574	    970.71284312	     78.07761532	   1015.55763437	   1182.39498484	    485.44249621	   1452.13275400	   -171.46067271	  -1168.19115192	      0.00000000	    107.44334735	    -15.71154575	    153.69520490	    137.56155591	    568.82796247	      0.00000000	      0.00000000	      0.00000000	     11.38025933	     33.89911680	    599.36318946	      0.00000000	      0.00000000	      0.00000000	     14.51730846	      0.00000000	      0.00000000	      0.00000000	      0.00000000	      0.00000000	      0.00000000	      0.00000000	      0.00000000	      0.00000000	      0.00000000	      0.00000000	      0.00000000	      0.00000000	      0.00000000	      0.00000000	      0.00000000	      0.00000000	      0.00000000	    130.71281962	      6.45080291	      0.00000000	      0.00000000	      0.00000000	      0.00000000	     77.19292878	      0.74318948	    -31.34225264	      0.34643766	      0.00000000	      0.00000000
      0.25977704	   2035.16462857	    252.44845640	     39.55177417	    253.49514811	   1243.96713364	    128.75964956	    737.16932232	    798.18621390	      3.81118156	     64.01473214	    318.25870852	    373.20977099	    970.49268027	     78.01498087	   1016.78960465	   1182.22548069	    485.36156778	   1452.46285201	   -170.55013359	  -1166.98392019	      0.00000000	    107.33380800	    -15.62793692	    153.30368407	    136.99114234	    566.85612337	      0.00000000	      0.00000000	      0.00000000	     11.34658432	     33.55899125	    600.12779682	      0.00000000	      0.00000000	      0.00000000	     14.54254860	      0.00000000	      0.00000000	      0.00000000	      0.00000000	      0.00000000	      0.00000000	      0.00000000	      0.00000000	      0.00000000	      0.00000000	      0.00000000	      0.00000000	      0.00000000	      0.00000000	      0.00000000	      0.00000000	      0.00000000	      0.00000000	    130.51990473	      6.43707369	      0.00000000	      0.00000000	      0.00000000	      0.00000000	     77.91059763	      0.75673387	    -31.47738297	      0.34904052	      0.00000000	      0.00000000
